<?xml version="1.0" encoding="utf-8"?>
<!-- Generator: Adobe Illustrator 27.4.1, SVG Export Plug-In . SVG Version: 6.00 Build 0)  -->
<svg version="1.1" id="Layer_1" xmlns="http://www.w3.org/2000/svg" xmlns:xlink="http://www.w3.org/1999/xlink" x="0px" y="0px"
	 viewBox="0 0 132 44" style="enable-background:new 0 0 132 44;" xml:space="preserve">
<style type="text/css">
	.st0{fill:#566D4F;}
	.st1{font-family:'Futura-Bold';}
	.st2{font-size:30px;}
	.st3{fill:#231F20;}
	.st4{fill:#FFFFFF;}
</style>
<g>
	<path class="st0" d="M38.9,1c2.4,0,4.4,2,4.4,4.4v33.5c0,2.4-2,4.4-4.4,4.4H5.4c-2.4,0-4.4-2-4.4-4.4V5.3c0-2.4,2-4.4,4.4-4.4h33.5
		 M38.9,0H5.4C2.5,0,0,2.5,0,5.4v33.5c0,3,2.4,5.4,5.4,5.4h33.5c3,0,5.4-2.4,5.4-5.4V5.3C44.3,2.4,41.9,0,38.9,0L38.9,0z"/>
</g>
<path class="st0" d="M25.4,18.5v-7.6H28c1.1,0,1.3,0.7,1.4,0.9c0.4,0.4,0.7,0.6,1.2,0.6h2.9V6h-2.9c-0.6,0-0.9-0.2-1.2-0.6
	c-0.1-0.1-0.3-0.9-1.4-0.9h-4v13.1l-1.8-1.2L6.1,26.8h3.8v12.5H19v-9.9h6.4v9.7h9.1V26.8h3.8L25.4,18.5L25.4,18.5z"/>
<text transform="matrix(1 0 0 1 55.1171 33.3382)" class="st0 st1 st2">NPE</text>
<g>
	<path d="M-113.1,1c2.4,0,4.4,2,4.4,4.4v33.5c0,2.4-2,4.4-4.4,4.4h-33.5c-2.4,0-4.4-2-4.4-4.4V5.4c0-2.4,2-4.4,4.4-4.4L-113.1,1
		 M-113.1,0h-33.5c-2.9,0-5.4,2.5-5.4,5.4v33.5c0,3,2.4,5.4,5.4,5.4h33.5c3,0,5.4-2.4,5.4-5.4V5.4C-107.8,2.4-110.2,0-113.1,0
		L-113.1,0z"/>
</g>
<path d="M-126.6,18.6V11h2.6c1.1,0,1.3,0.7,1.4,0.9c0.4,0.4,0.7,0.6,1.2,0.6h2.9V6.1h-2.9c-0.6,0-0.9-0.2-1.2-0.6
	c-0.1-0.1-0.3-0.9-1.4-0.9h-4v13.1l-1.8-1.2l-16.1,10.3h3.8v12.5h9.1v-9.9h6.4v9.7h9.1V26.8h3.8L-126.6,18.6L-126.6,18.6z"/>
<text transform="matrix(1 0 0 1 -96.941 33.3801)" class="st1 st2">NPE</text>
<g>
	<path class="st3" d="M-298.7,43.6c-2.7,0-4.9-2.2-4.9-4.9V5.3c0-2.6,2.2-4.9,4.9-4.9h33.5c2.7,0,4.9,2.2,4.9,4.9v33.5
		c0,2.7-2.2,4.9-4.9,4.9h-33.5V43.6z"/>
	<path class="st4" d="M-265.2,1c2.4,0,4.4,2,4.4,4.4v33.5c0,2.4-2,4.4-4.4,4.4h-33.5c-2.4,0-4.4-2-4.4-4.4V5.3
		c0.1-2.4,2-4.3,4.4-4.3H-265.2 M-265.2,0h-33.5c-2.9,0-5.3,2.4-5.3,5.3v33.5c0,3,2.4,5.4,5.4,5.4h33.5c3,0,5.4-2.4,5.4-5.4V5.3
		C-259.8,2.4-262.2,0-265.2,0L-265.2,0z"/>
</g>
<path class="st4" d="M-278.7,18.5V11h2.6c1.1,0,1.3,0.7,1.4,0.9c0.4,0.4,0.7,0.6,1.2,0.6h2.9V6h-2.9c-0.6,0-0.9-0.2-1.2-0.6
	c-0.1-0.1-0.3-0.9-1.4-0.9h-4v13.1l-1.8-1.2L-298,26.8h3.8v12.5h9.1v-9.9h6.4v9.7h9.1V26.8h3.8L-278.7,18.5L-278.7,18.5z"/>
<text transform="matrix(1 0 0 1 -248.999 33.322)" class="st4 st1 st2">NPE</text>
</svg>
