<svg version="1.1" xmlns="http://www.w3.org/2000/svg" xmlns:xlink="http://www.w3.org/1999/xlink" x="0px" y="0px" viewBox="0 0 124 124"
	width="44" height="44" preserveAspectRatio="xMidYMid meet">
	<path fill="#231F20" d="M15,124.2c-8.2,0-14.8-6.6-14.8-14.8V15C0.2,6.8,6.9,0.2,15,0.2h94.4c8.2,0,14.8,6.6,14.8,14.8v94.3
		c0,8.2-6.6,14.8-14.8,14.8L15,124.2L15,124.2z"/>
	<path fill="#FFFFFF" d="M15,2.7C8.3,2.7,2.7,8.3,2.7,15v94.3c0,6.8,5.5,12.3,12.3,12.3h94.4c6.8,0,12.3-5.5,12.3-12.3V15
		c0-6.8-5.5-12.3-12.3-12.3L15,2.7L15,2.7z"/>
	<path  fill="#231F20" d="M71.3,52.2V30.9h7.3c3.1,0,3.6,2,4,2.4c1.1,1.1,1.9,1.8,3.5,1.8h8.1V17h-8.1c-1.6,0-2.4-0.7-3.5-1.8
		c-0.4-0.3-0.9-2.4-4-2.4H67.4v36.9l-5.1-3.4L17,75.5h10.6v35.3h25.7V82.8h17.9v27.4h25.7V75.5h10.6L71.3,52.2L71.3,52.2z"/>
</svg>
