<?xml version="1.0" encoding="UTF-8"?><svg id="a" xmlns="http://www.w3.org/2000/svg" width="132" height="44" viewBox="0 0 132 44"><path d="m38.9,1c2.4,0,4.4,2,4.4,4.4v33.5c0,2.4-2,4.4-4.4,4.4H5.4c-2.4,0-4.4-2-4.4-4.4V5.3C1,2.9,3,.9,5.4.9h33.5M38.9,0H5.4C2.5,0,0,2.5,0,5.4v33.5c0,3,2.4,5.4,5.4,5.4h33.5c3,0,5.4-2.4,5.4-5.4V5.3C44.3,2.4,41.9,0,38.9,0h0Z" style="fill:#3d6222;"/><path d="m25.4,18.5v-7.6h2.6c1.1,0,1.3.7,1.4.9.4.4.7.6,1.2.6h2.9v-6.4h-2.9c-.6,0-.9-.2-1.2-.6-.1-.1-.3-.9-1.4-.9h-4v13.1l-1.8-1.2L6.1,26.8h3.8v12.5h9.1v-9.9h6.4v9.7h9.1v-12.3h3.8l-12.9-8.3h0Z" style="fill:#3d6222;"/><g style="isolation:isolate;"><path d="m57.49,33.34V10.72h5.88l10.86,13.83v-13.83h5.85v22.62h-5.85l-10.86-13.83v13.83h-5.88Z" style="fill:#3d6222;"/><path d="m90.7,33.34h-5.88V10.72h9.36c2.54,0,4.49.66,5.83,1.98,1.35,1.32,2.03,3.18,2.03,5.58s-.67,4.26-2.03,5.58c-1.35,1.32-3.29,1.98-5.83,1.98h-3.48v7.5Zm0-12.24h1.95c2.16,0,3.24-.94,3.24-2.82s-1.08-2.82-3.24-2.82h-1.95v5.64Z" style="fill:#3d6222;"/><path d="m118.03,15.7h-6.99v3.78h6.6v4.98h-6.6v3.9h6.99v4.98h-12.87V10.72h12.87v4.98Z" style="fill:#3d6222;"/></g></svg>